<svg width="87" height="87" viewBox="0 0 87 87" fill="none" xmlns="http://www.w3.org/2000/svg">
<g filter="url(#filter0_d_7_30)">
<circle cx="42.5" cy="41.5" r="38.5" fill="white"/>
<circle cx="42.5" cy="41.5" r="36.5" stroke="white" stroke-width="4"/>
</g>
<path d="M53.4004 39.3691C53.3164 39.3691 53.2307 39.3544 53.1477 39.3224C51.2965 38.6159 49.5873 38.2454 47.92 38.1891C47.5396 38.1761 47.2414 37.867 47.2548 37.4982C47.2681 37.1294 47.5869 36.8385 47.9674 36.8532C49.7936 36.9147 51.6528 37.3155 53.6522 38.0791C54.0067 38.2142 54.1809 38.6021 54.0407 38.9458C53.9335 39.209 53.6736 39.3691 53.3986 39.3691H53.4004Z" fill="#A4C302"/>
<path d="M56.4902 44.8426C56.3187 44.8426 56.1482 44.7811 56.0142 44.6582C55.9946 44.64 54.0425 42.8599 51.0956 41.9128C47.2128 40.6652 43.4935 41.3829 40.0411 44.0469C39.7429 44.2772 39.3098 44.2287 39.0722 43.9404C38.8347 43.6513 38.8847 43.2314 39.1821 43.0011C43.9846 39.2947 48.5755 39.6825 51.5805 40.6609C54.8051 41.7102 56.8795 43.6114 56.9662 43.6911C57.2412 43.9465 57.251 44.369 56.9876 44.6365C56.8519 44.7742 56.6706 44.8426 56.4893 44.8426H56.4902Z" fill="black"/>
<path d="M43.7944 63.1562C40.0393 63.1562 36.7522 62.7164 32.8025 61.6853C32.4345 61.5892 32.2167 61.2221 32.3158 60.8663C32.4149 60.5096 32.7935 60.2983 33.1606 60.3944C37.038 61.4065 40.1179 61.8195 43.7935 61.8195C44.1739 61.8195 44.4829 62.119 44.4829 62.4879C44.4829 62.8567 44.1739 63.1562 43.7935 63.1562H43.7944Z" fill="#A4C302"/>
<path d="M37.038 46.9983C36.8245 46.9983 36.6138 46.9022 36.479 46.7221C36.2557 46.4234 36.3245 46.0061 36.6326 45.7897C36.671 45.762 39.2499 43.891 40.7011 39.8963C42.588 34.7017 44.5794 30.107 45.1446 28.8222C45.2938 28.4828 45.6992 28.3252 46.0492 28.4698C46.3993 28.6144 46.5618 29.0075 46.4127 29.3468C45.851 30.6221 43.8748 35.183 42.0013 40.3396C40.3948 44.7603 37.5613 46.7862 37.4416 46.871C37.3193 46.9567 37.1782 46.9983 37.038 46.9983Z" fill="black"/>
<path d="M47.019 53.734C44.5606 53.734 42.2736 53.2042 40.2938 52.1644C39.9589 51.9886 39.8348 51.5826 40.0161 51.2579C40.1974 50.9333 40.6162 50.8129 40.9511 50.9887C44.0649 52.625 47.4182 52.5401 49.6819 52.1817C52.1752 51.7869 53.9433 50.9809 53.9612 50.9731C54.305 50.8146 54.7158 50.9566 54.8801 51.2891C55.0435 51.6224 54.8988 52.0207 54.555 52.18C54.4773 52.2155 52.6244 53.0648 49.948 53.4942C48.9514 53.6544 47.9727 53.734 47.0199 53.734H47.019Z" fill="#A4C302"/>
<path d="M29.0974 43.7793C28.9938 43.7793 28.8884 43.7568 28.7893 43.7083C28.4491 43.5429 28.3115 43.1412 28.4821 42.8114C29.7073 40.44 31.2924 38.176 33.0659 36.2644C33.3204 35.9899 33.7562 35.9674 34.0392 36.2141C34.3223 36.4609 34.3455 36.8834 34.091 37.1578C32.3988 38.982 30.8861 41.1447 29.7153 43.4105C29.5948 43.6442 29.351 43.7793 29.0983 43.7793H29.0974Z" fill="#A4C302"/>
<path d="M55.0944 46.4788C54.9676 46.4788 54.8399 46.445 54.7256 46.3749C54.4041 46.1775 54.3086 45.7654 54.5122 45.4537C54.6291 45.2753 57.4233 41.0737 62.192 40.5872C62.5706 40.5482 62.9099 40.8149 62.9501 41.1819C62.9903 41.549 62.7153 41.878 62.3366 41.917C58.2422 42.3352 55.7025 46.1316 55.6775 46.1705C55.5463 46.3705 55.323 46.4805 55.0953 46.4805L55.0944 46.4788Z" fill="black"/>
<path d="M51.9939 31.8697C51.3188 31.8697 50.6312 31.6818 50.1249 31.3415C49.7936 31.119 48.4478 29.9632 48.4094 28.7745C48.3934 28.2776 48.6104 27.8308 49.0202 27.5174C49.3319 27.2793 49.707 27.1815 50.1043 27.236C50.9982 27.3572 51.7225 28.2152 51.993 28.5788C52.2154 28.8784 52.1457 29.2957 51.8368 29.5122C51.5278 29.7277 51.0974 29.6602 50.8741 29.3606C50.4187 28.7485 49.9829 28.539 49.8873 28.5589C49.8873 28.5589 49.8829 28.5607 49.8739 28.5676C49.798 28.6256 49.7855 28.6654 49.7882 28.733C49.8025 29.1866 50.5249 29.984 50.9107 30.2429C51.5028 30.6411 52.586 30.6359 52.8959 30.2394C52.9477 30.087 52.9226 29.3883 52.2297 27.83C51.7162 26.6733 50.9688 25.3642 50.3267 24.4932C50.1052 24.1928 50.1767 23.7755 50.4865 23.5608C50.7964 23.3461 51.2268 23.4154 51.4483 23.7158C52.1788 24.7062 53.0093 26.1737 53.5638 27.4542C54.581 29.8039 54.3202 30.5996 54.0344 30.9944C53.5969 31.5995 52.8048 31.8714 51.9939 31.8714V31.8697Z" fill="black"/>
<path d="M54.4291 30.997C54.0407 30.997 53.6326 30.9139 53.3048 30.765C52.9602 30.6083 52.8119 30.2101 52.9744 29.8759C53.1361 29.5417 53.5469 29.398 53.8915 29.5555C54.1496 29.6733 54.7354 29.7373 54.8917 29.4906C54.948 29.3296 54.9364 28.5374 54.2246 26.7132C53.7281 25.4396 53.0512 24.1046 52.6146 23.5393C52.3868 23.2432 52.4494 22.825 52.7539 22.6033C53.0593 22.3826 53.4906 22.4432 53.7192 22.7384C54.2487 23.425 55.0033 24.908 55.5552 26.3452C56.6482 29.1954 56.233 29.907 56.0973 30.1408C55.807 30.6386 55.2855 30.9399 54.6283 30.9901C54.5631 30.9953 54.497 30.9979 54.43 30.9979L54.4291 30.997Z" fill="black"/>
<path d="M55.5918 29.7772C55.2525 29.7772 54.9569 29.5339 54.9096 29.1988C54.8578 28.8335 55.1221 28.4958 55.4989 28.4456C55.6177 28.43 55.732 28.4188 55.8419 28.4075C56.3223 28.3608 56.4812 28.3261 56.5741 28.1963C56.6322 28.0551 56.6491 27.3599 56.0633 25.7591C55.657 24.6483 55.0632 23.4033 54.6193 22.7315C54.4139 22.4207 54.5077 22.0068 54.8283 21.8086C55.1489 21.6094 55.5757 21.7003 55.7802 22.0112C56.2946 22.7895 56.9617 24.1921 57.4028 25.4223C58.2405 27.7573 57.9922 28.5382 57.7332 28.9218C57.2671 29.6109 56.5241 29.6845 55.9812 29.7373C55.8838 29.7469 55.7856 29.7564 55.6865 29.7694C55.6552 29.7737 55.6231 29.7754 55.5918 29.7754V29.7772Z" fill="black"/>
<path d="M57.2314 31.0724C56.9134 31.0724 56.6143 30.9763 56.3616 30.7884C55.7293 30.3191 55.5668 29.4334 55.5695 29.03C55.5713 28.662 55.8802 28.3651 56.2589 28.3651H56.2633C56.6438 28.3668 56.951 28.6681 56.9492 29.0378C56.9483 29.2352 57.0599 29.6222 57.201 29.7269C57.2099 29.7339 57.2269 29.746 57.3046 29.7243C57.5225 29.6083 57.8109 28.6101 57.8279 27.5486C57.8341 27.1798 58.1476 26.8872 58.528 26.8907C58.9084 26.8959 59.212 27.1997 59.2067 27.5686C59.196 28.2828 59.054 30.6421 57.6725 31.0126C57.5243 31.0524 57.3769 31.0724 57.2331 31.0724H57.2314Z" fill="black"/>
<path d="M62.2634 60.4602C62.1357 60.4602 62.0071 60.4256 61.8911 60.3537C58.2485 58.0854 54.6944 58.623 50.5785 59.2455C48.4469 59.5676 46.243 59.9009 43.7935 59.9009C35.2591 59.9009 24.1386 56.5356 22.0311 52.0319C20.5246 48.812 23.5876 41.2581 28.5866 35.8669C32.3193 31.8411 38.2515 26.1711 41.7182 23.6508C43.497 22.3582 46.61 21.3063 51.7689 19.5635C54.2934 18.7107 56.3857 18.3999 58.4128 22.7037L58.5066 22.9019C59.1638 24.2889 60.1577 26.385 59.354 27.6144C58.8245 28.4239 57.9815 28.6351 57.393 28.7234C57.0171 28.7797 56.6643 28.5304 56.6063 28.165C56.5482 27.8005 56.8054 27.4585 57.1823 27.4023C57.7163 27.3217 58.0083 27.1763 58.1905 26.8984C58.5932 26.2828 57.6555 24.3045 57.2555 23.4595L57.1608 23.2586C55.4945 19.7211 54.1934 20.16 52.2243 20.8258C47.1914 22.5253 44.1543 23.5521 42.5469 24.7201C39.1481 27.191 33.3025 32.7822 29.6136 36.7596C24.6681 42.0927 22.1525 49.051 23.2884 51.4786C24.0895 53.1911 26.856 54.972 30.8789 56.3642C34.9162 57.7616 39.6241 58.5633 43.7953 58.5633C46.1376 58.5633 48.288 58.2386 50.3678 57.9243C54.5783 57.288 58.5557 56.6871 62.6385 59.2291C62.9591 59.4282 63.052 59.842 62.8457 60.1528C62.7144 60.352 62.492 60.4602 62.2652 60.4602H62.2634Z" fill="black"/>
<path d="M49.2997 30.0888C49.2997 30.0888 49.2944 30.0888 49.2917 30.0888C49.1792 30.088 46.5118 30.0525 44.273 29.4378C43.9069 29.3373 43.6935 28.9676 43.7971 28.6127C43.9007 28.2577 44.282 28.0508 44.6481 28.1512C46.7074 28.7166 49.281 28.7512 49.3069 28.7521C49.6873 28.7564 49.9927 29.0585 49.9883 29.4282C49.9838 29.7945 49.6766 30.0888 49.2989 30.0888H49.2997Z" fill="black"/>
<defs>
<filter id="filter0_d_7_30" x="0" y="0" width="87" height="87" filterUnits="userSpaceOnUse" color-interpolation-filters="sRGB">
<feFlood flood-opacity="0" result="BackgroundImageFix"/>
<feColorMatrix in="SourceAlpha" type="matrix" values="0 0 0 0 0 0 0 0 0 0 0 0 0 0 0 0 0 0 127 0" result="hardAlpha"/>
<feOffset dx="1" dy="2"/>
<feGaussianBlur stdDeviation="2.5"/>
<feComposite in2="hardAlpha" operator="out"/>
<feColorMatrix type="matrix" values="0 0 0 0 0 0 0 0 0 0 0 0 0 0 0 0 0 0 0.15 0"/>
<feBlend mode="normal" in2="BackgroundImageFix" result="effect1_dropShadow_7_30"/>
<feBlend mode="normal" in="SourceGraphic" in2="effect1_dropShadow_7_30" result="shape"/>
</filter>
</defs>
</svg>
