<svg width="22" height="13" viewBox="0 0 22 13" fill="none" xmlns="http://www.w3.org/2000/svg">
<path d="M19.2013 10.1808C19.2013 9.92817 19.2013 9.75479 19.2013 9.58064C19.2013 6.99403 19.2045 4.4082 19.199 1.82159C19.199 1.55259 19.1817 1.27659 19.1197 1.01536C18.9846 0.441597 18.4522 0.026433 17.8569 0.0155487C17.2278 0.00466442 16.5988 0.00699711 15.9706 0.0155487C15.1766 0.0256557 14.6002 0.579207 14.5868 1.37377C14.5695 2.39535 14.5813 3.41694 14.5813 4.4393C14.5813 4.61034 14.5813 4.7806 14.5813 4.98274H7.42238C7.42238 4.78915 7.42238 4.61889 7.42238 4.4494C7.42238 3.47525 7.39175 2.50031 7.43259 1.52849C7.47185 0.588538 6.68889 -0.0660839 5.89965 0.00621986C5.38762 0.0528679 4.8646 0.0559769 4.35336 0.00621986C3.57118 -0.0699711 2.80629 0.560549 2.83142 1.52849C2.87461 3.18759 2.84319 4.84824 2.84319 6.50812C2.84319 7.5297 2.84477 8.55128 2.84241 9.57364C2.84241 9.76179 2.82513 9.94916 2.81335 10.1824C2.5008 10.1824 2.22908 10.1933 1.95893 10.1793C1.67229 10.1645 1.56156 10.0502 1.53015 9.76412C1.51758 9.65372 1.52622 9.54099 1.52622 9.42904C1.52622 7.46517 1.52622 5.50208 1.52622 3.53822C1.52622 3.45814 1.52229 3.37806 1.527 3.29876C1.54978 2.9458 1.60475 2.88127 1.96521 2.77709C2.33038 2.67135 2.46546 2.47621 2.39399 2.15512C2.33117 1.8729 2.06102 1.72752 1.71312 1.78816C0.960005 1.92033 0.496668 2.49487 0.505307 3.28788C0.511589 3.84609 0.514731 4.40509 0.523369 4.9633C0.52651 5.16389 0.510019 5.32793 0.279136 5.42667C0.069456 5.51686 0.0113426 5.73221 0.00898665 5.95146C0.00584538 6.23912 0.0207664 6.52678 0.00348943 6.81366C-0.0216407 7.21716 0.0828064 7.53981 0.518657 7.69763C0.518657 8.36158 0.557138 9.01698 0.509233 9.66616C0.441696 10.5773 1.21837 11.2903 2.01861 11.2048C2.2707 11.1775 2.5275 11.2009 2.79843 11.2009C2.81964 11.4302 2.82749 11.6191 2.85655 11.8042C2.9555 12.4386 3.38349 12.9035 4.03059 12.9525C4.75151 13.0069 5.48264 13.0186 6.20357 12.9665C6.92527 12.9144 7.40824 12.3321 7.42002 11.588C7.43494 10.5828 7.42395 9.57675 7.42473 8.57072C7.42473 8.39657 7.42473 8.22242 7.42473 8.05993C7.78912 7.94176 13.6601 7.89822 14.5515 8.00395C14.5617 8.16022 14.5805 8.32815 14.5813 8.49608C14.5853 9.47024 14.6159 10.4452 14.5758 11.417C14.5381 12.3274 15.1735 13.0248 16.1637 12.9945C16.631 12.9805 17.0991 12.9937 17.5663 12.9914C18.5786 12.9859 19.0859 12.5381 19.2021 11.5515C19.2131 11.4567 19.2194 11.3618 19.2335 11.2009C19.5045 11.2009 19.7738 11.2032 20.0424 11.2009C20.9094 11.1915 21.4631 10.6566 21.4788 9.79911C21.4898 9.20824 21.4874 8.61737 21.4803 8.02728C21.478 7.8228 21.5008 7.66109 21.7199 7.56002C21.9303 7.46206 21.9908 7.24826 21.9955 7.03368C22.0041 6.66672 21.9986 6.29898 21.9931 5.93202C21.9884 5.60782 21.8164 5.39868 21.4803 5.31083C21.4803 4.61889 21.4866 3.95027 21.4764 3.28088C21.4733 3.07641 21.4646 2.85872 21.3955 2.6698C21.1945 2.12013 20.7649 1.84103 20.1893 1.77727C19.8893 1.74384 19.6608 1.904 19.605 2.15978C19.5406 2.456 19.6796 2.67213 19.9969 2.77087C20.4327 2.90615 20.4759 2.95279 20.4759 3.40605C20.4791 5.46554 20.4798 7.52504 20.4759 9.58453C20.4751 10.0875 20.3809 10.1746 19.8909 10.1816C19.6843 10.1847 19.4778 10.1808 19.2013 10.1808ZM18.1741 6.46847C18.1741 8.04904 18.1741 9.62962 18.1741 11.211C18.1741 11.3229 18.182 11.4357 18.1655 11.5453C18.1262 11.8189 17.9998 11.9604 17.7289 11.9682C17.165 11.9845 16.5996 11.9853 16.0357 11.9698C15.7475 11.962 15.6384 11.8399 15.6117 11.5499C15.5912 11.3276 15.5881 11.1037 15.5881 10.8798C15.5865 8.03738 15.5865 5.19577 15.5881 2.35337C15.5881 2.05016 15.5936 1.74695 15.6069 1.44452C15.6172 1.21128 15.7177 1.03869 15.9831 1.03713C16.58 1.03324 17.1768 1.03013 17.7729 1.03946C18.021 1.04335 18.1506 1.19729 18.1663 1.43908C18.1749 1.56658 18.1734 1.69409 18.1734 1.82237C18.1734 3.37107 18.1741 4.91977 18.1741 6.46847ZM3.84604 6.519C3.84604 4.95553 3.84604 3.39128 3.84604 1.82781C3.84604 1.7003 3.83898 1.57125 3.85154 1.4453C3.8806 1.15842 3.9874 1.04413 4.28032 1.03791C4.84418 1.02625 5.40883 1.02625 5.97268 1.03791C6.2766 1.04413 6.36613 1.14442 6.39204 1.44685C6.40304 1.57358 6.39518 1.70186 6.39518 1.82936C6.39518 4.86146 6.39518 7.89278 6.39518 10.9249C6.39518 11.1006 6.40304 11.2763 6.39518 11.4512C6.37791 11.8462 6.26953 11.962 5.86981 11.9729C5.41903 11.9853 4.96748 11.9791 4.51592 11.976C3.93714 11.9721 3.84762 11.8835 3.84683 11.3058C3.84526 9.71048 3.84604 8.11435 3.84604 6.519ZM14.5633 6.90307C13.8101 7.0228 7.7954 6.99014 7.44201 6.86575C7.43494 6.7468 7.42081 6.62007 7.42238 6.49412C7.42473 6.35574 7.44201 6.21735 7.45222 6.08907C8.0844 5.97789 14.2217 6.01054 14.5633 6.12716V6.90307Z" fill="#A4C417"/>
</svg>
