<svg width="95" height="39" viewBox="0 0 95 39" fill="none" xmlns="http://www.w3.org/2000/svg">
<path d="M9.34961 0.609375V39H0.0947266V0.609375H9.34961ZM24.2734 16.5879V23.707H6.71289V16.5879H24.2734ZM25.7764 0.609375V7.75488H6.71289V0.609375H25.7764ZM77.2188 8.67773L67.8584 39H57.918L72.0244 0.609375H78.3262L77.2188 8.67773ZM84.9707 39L75.584 8.67773L74.3711 0.609375H80.752L94.9375 39H84.9707ZM84.6016 24.6826V31.8281H64.9053V24.6826H84.6016Z" fill="black"/>
<path d="M56.415 23.9971V30.8525H28.7822L28.2549 25.4209L43.6797 0.609375H50.6934L43.0732 13.0811L36.7451 23.9971H56.415ZM52.5391 0.609375V39H43.6533V0.609375H52.5391Z" fill="#A4C417"/>
</svg>
