<?xml version="1.0" encoding="UTF-8"?>
<svg id="Capa_1" xmlns="http://www.w3.org/2000/svg" viewBox="0 0 12.19 15">
  <path d="M.27,11.08c.68,1.99,2.55,3.51,4.85,3.85l1.29-5.09h-1.95l1.16-4.26c-2.57.99-4.5,2.94-5.36,5.51Z" style="fill: #93aa24;"/>
  <path d="M5.64,5.57l.46-1.69c-.94,0-1.82.2-2.61.54-.07-.15-.14-.32-.2-.49h0c-.51-1.27-.51-2.92.51-3.57-.73.26-1.45.68-1.98,1.39-.95,1.29-.12,3.04.18,3.59-1.22,1.02-2,2.48-2,4.1,0,.57.1,1.12.27,1.63.86-2.56,2.8-4.51,5.36-5.51Z" style="fill: #a4c417;"/>
  <path d="M11.57,7.02c-.34-.63-.81-1.2-1.37-1.68.3-.54,1.14-2.3.18-3.58C9.24.23,7.21,0,6.1,0c-.4,0-.92.03-1.48.14-.07.03-1.25.48-.82,2.06.72-.48,1.7-.57,2.3-.57.76,0,2.14.14,2.81,1.04.31.41.05,1.24-.2,1.76l-1.32,3.74h2.01l-2.26,3.76c2.17-.96,3.84-2.77,4.43-4.91h0Z" style="fill: #111917;"/>
  <path d="M11.57,7.02c-.59,2.13-2.26,3.95-4.43,4.91l-1.82,3.03c.26.03.51.05.78.05,3.37,0,6.1-2.49,6.1-5.56,0-.87-.23-1.69-.62-2.43h0Z"/>
</svg>