<svg width="25" height="25" viewBox="0 0 25 25" fill="none" xmlns="http://www.w3.org/2000/svg">
<g clip-path="url(#clip0_373_11)">
<path d="M12.5 25C5.7 25 0 19.3 0 12.5C0 5.7 5.6 0 12.5 0C19.4 0 25 5.6 25 12.5C25 19.4 19.4 25 12.5 25ZM12.5 23.5C18.6 23.5 23.5 18.5 23.5 12.5C23.5 6.5 18.5 1.5 12.5 1.5C6.5 1.5 1.4 6.5 1.5 12.5C1.5 18.6 6.5 23.5 12.5 23.5Z" fill="black"/>
<path d="M12.5 15.3H17.1C17.6 15.3 17.9 15.7 17.9 16.1C17.9 16.5 17.6 16.9 17.2 17.1H8.4C5.6 17.1 8.2 17.1 8.1 17.1C7.5 17.1 7.1 16.6 7.1 16.1C7.1 15.6 7.5 15.2 8.1 15.2H12.5V15.3Z" fill="black"/>
<path d="M12.5 11.5H17.1C17.6 11.5 17.9 11.9 17.9 12.3C17.9 12.7 17.6 13.1 17.2 13.3H8.4C5.6 13.3 8.2 13.3 8.1 13.3C7.5 13.3 7.1 12.8 7.1 12.3C7.1 11.8 7.5 11.4 8.1 11.4H12.5V11.5Z" fill="black"/>
<path d="M12.5 7.80001H17.1C17.6 7.80001 17.9 8.20001 17.9 8.60001C17.9 9.00001 17.6 9.40001 17.2 9.60001H8.4C5.6 9.60001 8.2 9.60001 8.1 9.60001C7.5 9.60001 7.1 9.10001 7.1 8.60001C7.1 8.10001 7.5 7.70001 8.1 7.70001H12.5V7.80001Z" fill="black"/>
</g>
<defs>
<clipPath id="clip0_373_11">
<rect width="25" height="25" fill="white"/>
</clipPath>
</defs>
</svg>
