<svg width="23" height="27" viewBox="0 0 23 27" fill="none" xmlns="http://www.w3.org/2000/svg">
<path d="M10.3598 2.93107C10.6319 2.59469 10.8975 2.24866 11.1814 1.9187C12.2774 0.646009 13.6572 -0.00426412 15.3477 2.10412e-05C16.1222 0.00216362 16.8871 0.0353736 17.6285 0.274271C18.1427 0.43925 18.3623 0.819558 18.1416 1.29093C17.2546 3.18497 15.9669 4.65156 13.8082 5.09079C13.3197 5.19042 12.8066 5.16578 12.3052 5.19685C12.1777 5.20435 12.0502 5.20971 11.8435 5.22042C11.9228 5.70464 11.9956 6.14494 12.0824 6.67737C12.3299 6.57667 12.5238 6.49847 12.7166 6.41812C15.9615 5.0683 19.6286 6.26814 21.454 9.27097C22.3378 10.7247 22.5564 12.3177 22.4107 13.9718C22.1825 16.5472 21.6351 19.0497 20.6045 21.4333C20.0774 22.6514 19.4389 23.803 18.5262 24.779C17.7817 25.5739 16.916 26.2166 15.8973 26.6162C14.4778 27.1744 13.0551 27.1155 11.6721 26.4952C11.3357 26.3441 11.0807 26.3495 10.7508 26.492C8.81816 27.3319 6.98412 27.1047 5.24755 25.936C3.99307 25.0929 3.08569 23.953 2.39042 22.6289C1.13916 20.2442 0.442817 17.6924 0.13857 15.0302C0.0475107 14.2428 -0.00498254 13.449 0.000373912 12.6605C0.0250136 9.2624 2.69146 6.34099 6.07352 5.93068C7.47048 5.76142 8.78495 5.98211 10.048 6.57881C10.2023 6.65166 10.3608 6.71487 10.5815 6.81021C10.5954 6.63345 10.6254 6.51454 10.6104 6.40098C10.454 5.21828 9.84017 4.31625 8.88887 3.62848C8.60391 3.42279 8.29002 3.25889 8.00827 3.04998C7.65474 2.78859 7.58618 2.46292 7.77901 2.12975C7.98041 1.78051 8.35858 1.65409 8.74103 1.87799C9.28739 2.19831 9.80589 2.56576 10.3608 2.93L10.3598 2.93107ZM21.0416 13.223C21.1091 11.6235 20.6345 10.2148 19.5289 9.061C17.4121 6.85092 14.3332 6.65381 11.896 8.54035C11.3046 8.99779 11.1407 8.96779 10.5119 8.54892C9.96766 8.18682 9.40202 7.82258 8.79459 7.59654C5.48109 6.36563 1.77336 8.71175 1.41769 12.2288C1.28271 13.5561 1.47447 14.8599 1.70587 16.1572C2.05832 18.1348 2.62718 20.0449 3.55384 21.8372C4.15912 23.0081 4.94438 24.0237 6.04567 24.7715C7.45763 25.7313 8.94458 25.907 10.4508 25.0575C11.0047 24.7458 11.416 24.7468 11.9603 25.0575C13.114 25.7142 14.3375 25.7999 15.5652 25.2278C16.8207 24.6418 17.7688 23.7098 18.4641 22.5271C20.1524 19.6561 20.8295 16.5022 21.0416 13.223ZM16.3772 1.51161C14.4253 1.0606 12.3288 2.05047 11.7139 3.68633C13.5608 4.21662 15.5973 3.14104 16.3772 1.51161Z" fill="#A4C417"/>
<path d="M6.84694 9.41882C7.30652 9.41882 7.64505 9.70593 7.65576 10.1077C7.66647 10.4944 7.41365 10.7504 6.95192 10.8179C5.51425 11.029 4.8072 11.931 4.92718 13.3794C5.07502 15.1599 5.39962 16.9018 6.01883 18.5816C6.06382 18.7048 6.11417 18.8312 6.13239 18.9597C6.17524 19.2651 5.97919 19.5811 5.69637 19.6936C5.3857 19.8168 5.08573 19.7353 4.88219 19.459C4.81898 19.3722 4.77185 19.2693 4.73649 19.1676C3.9898 17.04 3.49594 14.8642 3.55915 12.5931C3.59878 11.1736 4.77078 9.53667 6.84587 9.41882H6.84694Z" fill="#A4C417"/>
</svg>
