<svg width="87" height="87" viewBox="0 0 87 87" fill="none" xmlns="http://www.w3.org/2000/svg">
<g filter="url(#filter0_d_9_113)">
<circle cx="42.5" cy="41.5" r="38.5" fill="white"/>
<circle cx="42.5" cy="41.5" r="36.5" stroke="white" stroke-width="4"/>
</g>
<path d="M35.0132 44.3863C34.995 44.3863 34.9776 44.3863 34.9594 44.3845C34.5716 44.3553 34.2805 44.0168 34.3097 43.629C34.3097 43.6153 34.4092 42.002 33.5578 39.8695C32.4145 37.008 30.1935 34.6127 26.9542 32.7485C26.6165 32.5541 26.5007 32.1234 26.695 31.7867C26.8894 31.4491 27.3201 31.3332 27.6568 31.5276C32.0805 34.0734 34.036 37.2288 34.8973 39.427C35.8445 41.8432 35.7204 43.6591 35.714 43.7348C35.6857 44.1044 35.3773 44.3863 35.0123 44.3863H35.0132Z" fill="black"/>
<path d="M29.8723 38.4341C28.4616 38.4341 26.9752 37.7881 25.8446 36.6703C24.7222 35.5607 24.0543 34.1883 23.5488 32.9911C23.4384 32.7311 23.3343 32.4646 23.2331 32.2064C22.9146 31.397 22.6144 30.6333 22.1518 29.9945C22.0131 29.8029 21.9793 29.5547 22.0623 29.333C22.1454 29.1112 22.3343 28.947 22.5651 28.8941C24.7797 28.3886 27.0856 28.374 29.0575 28.8512C31.0348 29.3302 32.5952 30.3686 33.4511 31.7766C34.4311 33.389 34.3289 35.3636 33.1919 36.809C32.4191 37.7908 31.3688 38.3502 30.1543 38.4259C30.0603 38.4314 29.9663 38.435 29.8723 38.435V38.4341ZM23.8472 30.0812C24.1182 30.6077 24.3335 31.1552 24.5434 31.6908C24.6465 31.9518 24.7432 32.1991 24.8463 32.4427C25.298 33.5122 25.8875 34.7322 26.8346 35.6675C27.7471 36.5681 28.9863 37.0864 30.0667 37.0188C30.8806 36.9677 31.5595 36.6037 32.0851 35.9366C32.8552 34.9585 32.9191 33.6125 32.2475 32.5075C31.3569 31.043 29.6588 30.4453 28.7262 30.219C27.2443 29.8604 25.5435 29.8148 23.8472 30.0803V30.0812Z" fill="black"/>
<path d="M35.0297 44.39C33.1354 44.39 31.8086 43.6491 31.7265 43.6026C31.3889 43.4091 31.2721 42.9793 31.4646 42.6408C31.6571 42.3041 32.0869 42.1864 32.4236 42.378C32.5276 42.4364 34.8819 43.7203 37.6576 42.3579C38.0071 42.1864 38.4287 42.3306 38.6002 42.68C38.7718 43.0295 38.6276 43.4511 38.2781 43.6226C37.1074 44.1966 35.9942 44.3891 35.0288 44.3891L35.0297 44.39Z" fill="#A4C302"/>
<path d="M44.233 49.4095C43.9027 49.4095 43.6079 49.1759 43.5422 48.8392C43.2731 47.4559 42.6006 46.1802 41.6488 45.2486C41.3705 44.9766 41.366 44.5304 41.6379 44.2521C41.9098 43.9738 42.356 43.9693 42.6343 44.2412C43.805 45.3873 44.5971 46.8837 44.9247 48.5691C44.9986 48.9514 44.7495 49.321 44.3671 49.3949C44.3215 49.404 44.2768 49.4077 44.2321 49.4077L44.233 49.4095Z" fill="#A4C302"/>
<path d="M32.0276 64.4966C31.9245 64.4966 31.8195 64.4911 31.7119 64.4792C29.5365 64.2374 27.0947 62.7875 25.1803 60.6003C22.0076 56.9768 19.7282 50.9243 21.7868 45.5725C23.3389 41.5366 27.0326 39.2399 31.6653 39.4269C32.0541 39.4425 32.3561 39.771 32.3406 40.1597C32.3251 40.5484 31.9947 40.8513 31.6079 40.8349C27.6075 40.6734 24.4275 42.6325 23.1017 46.0781C22.2859 48.1987 22.1956 50.6606 22.8389 53.1991C23.4347 55.5497 24.6428 57.8482 26.2397 59.6732C27.5436 61.1624 29.7062 62.8395 31.867 63.0804C32.2621 63.1242 32.6499 62.9965 33.0998 62.8477C33.6737 62.6579 34.3252 62.4435 35.078 62.5968C35.3372 62.6497 35.5662 62.7026 35.7889 62.7537C36.7561 62.9782 37.2881 63.1014 38.3018 62.7373C40.4398 61.9681 42.3588 60.405 43.8507 58.2169C45.224 56.2039 46.1574 53.7603 46.4814 51.3358C46.7971 48.9725 46.2788 46.5197 45.0615 44.608C43.7731 42.5851 41.7757 41.2747 39.4379 40.9189C38.6386 40.7975 37.831 40.7957 37.278 40.9152C37.0736 40.959 36.8592 40.9106 36.694 40.7811C36.5289 40.6515 36.4303 40.4553 36.4249 40.2454C36.3656 38.0327 38.5072 35.9595 39.5209 35.1054L38.7763 33.8964C37.477 35.1136 36.4641 36.9733 36.4522 36.9943C36.267 37.3364 35.84 37.4642 35.4978 37.2799C35.1556 37.0955 35.0278 36.6685 35.2122 36.3254C35.2724 36.2141 36.7068 33.5761 38.5427 32.2648C38.7015 32.1517 38.9004 32.1088 39.0921 32.1471C39.2837 32.1855 39.4498 32.3023 39.552 32.4683L41.0484 34.8974C41.2419 35.2103 41.1607 35.6201 40.8632 35.8363C40.1323 36.3701 38.415 37.9058 37.9505 39.4224C38.6687 39.395 39.332 39.4762 39.6505 39.5246C42.3962 39.9425 44.7394 41.4782 46.2505 43.8498C47.6439 46.037 48.237 48.8329 47.8793 51.5201C47.5271 54.1581 46.5106 56.8171 45.0159 59.0089C43.3552 61.4443 41.199 63.1908 38.78 64.0613C37.3757 64.5668 36.4933 64.3615 35.4713 64.1252C35.2587 64.0759 35.0379 64.0248 34.7988 63.9765C34.4128 63.898 34.0095 64.0312 33.5423 64.1854C33.0943 64.3332 32.5952 64.4975 32.0285 64.4975L32.0276 64.4966Z" fill="#A4C302"/>
<path d="M45.4557 40.3038C45.067 40.3038 44.7513 39.9881 44.7513 39.5994V34.7988C44.7513 33.5797 45.1126 32.4017 45.797 31.3925L48.9797 26.6987C49.3858 26.0992 49.6897 24.5653 49.6897 23.5935C49.6897 23.2048 50.0054 22.889 50.3941 22.889H57.308C57.6967 22.889 58.0124 23.2048 58.0124 23.5935C58.0124 24.5653 58.3163 26.0992 58.7224 26.6987L61.9051 31.3925C62.5895 32.4017 62.9508 33.5797 62.9508 34.7988V38.8977C62.9508 39.2864 62.6351 39.6021 62.2464 39.6021C61.8577 39.6021 61.5419 39.2864 61.5419 38.8977V34.7988C61.5419 33.8626 61.2645 32.9583 60.7389 32.1827L57.5562 27.4889C57.0297 26.7124 56.735 25.3427 56.6391 24.2979H51.0629C50.9671 25.3436 50.6724 26.7124 50.1459 27.4889L46.9631 32.1827C46.4376 32.9574 46.1602 33.8626 46.1602 34.7988V39.5994C46.1602 39.9881 45.8444 40.3038 45.4557 40.3038Z" fill="black"/>
<path d="M59.0454 64.4976C58.2999 64.4976 57.6319 64.2184 56.933 63.9264C56.1008 63.5787 55.1564 63.1836 53.8506 63.1836C52.5448 63.1836 51.6013 63.5778 50.7682 63.9264C49.8922 64.2923 49.0655 64.6381 48.0737 64.4401C46.5936 64.1436 45.3928 63.0623 44.9402 61.6178C44.8243 61.2464 45.0305 60.8513 45.4019 60.7345C45.7733 60.6186 46.1684 60.8249 46.2852 61.1962C46.5836 62.1498 47.3756 62.8633 48.3511 63.0586C48.9195 63.1727 49.4679 62.9436 50.2262 62.6261C51.1341 62.2465 52.2629 61.7748 53.8515 61.7748C55.4402 61.7748 56.5698 62.2465 57.4768 62.6261C58.2351 62.9427 58.7826 63.1718 59.3511 63.0586C60.6203 62.8049 61.5419 61.6771 61.5419 60.3768V53.5715C61.5419 53.1828 61.8577 52.8671 62.2464 52.8671C62.6351 52.8671 62.9508 53.1828 62.9508 53.5715V60.3768C62.9508 62.346 61.5529 64.0551 59.6276 64.4401C59.4277 64.4803 59.2343 64.4976 59.0454 64.4976Z" fill="black"/>
<path d="M57.6684 24.2971H50.0346C49.4716 24.2971 49.0126 23.839 49.0126 23.2751V19.595C49.0126 18.657 50.2965 18.3805 50.7801 18.2765C51.6086 18.0976 52.699 18 53.8515 18C55.004 18 56.0953 18.0985 56.9229 18.2765C57.4066 18.3805 58.6895 18.657 58.6895 19.595V23.276C58.6895 23.839 58.2314 24.298 57.6675 24.298L57.6684 24.2971ZM50.4215 22.8882H57.2806V19.8441C56.87 19.6635 55.6701 19.4089 53.8515 19.4089C52.0329 19.4089 50.8321 19.6635 50.4215 19.8441V22.8882Z" fill="#A4C302"/>
<path d="M59.5171 36.2962C59.1284 36.2962 58.8127 35.9805 58.8127 35.5918C58.8127 34.6556 58.5353 33.7513 58.0097 32.9757C57.7916 32.6536 57.8756 32.2156 58.1977 31.9975C58.5198 31.7794 58.9578 31.8634 59.1759 32.1855C59.8602 33.1947 60.2216 34.3727 60.2216 35.5918C60.2216 35.9805 59.9059 36.2962 59.5171 36.2962Z" fill="black"/>
<path d="M57.2852 31.3451C57.0598 31.3451 56.8381 31.2365 56.7012 31.0357L55.9411 29.9143C55.723 29.5922 55.807 29.1542 56.1291 28.9361C56.4512 28.718 56.8892 28.802 57.1073 29.1241L57.8674 30.2455C58.0855 30.5676 58.0015 31.0056 57.6794 31.2237C57.558 31.3058 57.4212 31.3451 57.2843 31.3451H57.2852Z" fill="black"/>
<path d="M61.7774 43.2275C61.3887 43.2275 61.0729 42.9118 61.0729 42.5231C61.0729 42.1343 61.3887 41.8186 61.7774 41.8186C61.9225 41.8186 62.2619 41.8186 62.2619 40.9381V40.397C62.2619 39.5164 61.9225 39.5164 61.7774 39.5164C61.3887 39.5164 61.0729 39.2007 61.0729 38.812C61.0729 38.4233 61.3887 38.1075 61.7774 38.1075C63.1735 38.1075 63.6708 39.2901 63.6708 40.397V40.9381C63.6708 42.0449 63.1735 43.2275 61.7774 43.2275Z" fill="black"/>
<path d="M61.7774 46.9387C61.3887 46.9387 61.0729 46.623 61.0729 46.2342C61.0729 45.8455 61.3887 45.5298 61.7774 45.5298C61.9225 45.5298 62.2619 45.5298 62.2619 44.6493V44.1082C62.2619 43.2276 61.9225 43.2276 61.7774 43.2276C61.3887 43.2276 61.0729 42.9119 61.0729 42.5232C61.0729 42.1344 61.3887 41.8187 61.7774 41.8187C63.1735 41.8187 63.6708 43.0013 63.6708 44.1082V44.6493C63.6708 45.7561 63.1735 46.9387 61.7774 46.9387Z" fill="black"/>
<path d="M61.7774 50.6496C61.3887 50.6496 61.0729 50.3339 61.0729 49.9452C61.0729 49.5565 61.3887 49.2407 61.7774 49.2407C61.9225 49.2407 62.2619 49.2407 62.2619 48.3602V47.8191C62.2619 46.9385 61.9225 46.9385 61.7774 46.9385C61.3887 46.9385 61.0729 46.6228 61.0729 46.2341C61.0729 45.8454 61.3887 45.5297 61.7774 45.5297C63.1735 45.5297 63.6708 46.7122 63.6708 47.8191V48.3602C63.6708 49.467 63.1735 50.6496 61.7774 50.6496Z" fill="black"/>
<path d="M61.7774 54.3607C61.3887 54.3607 61.0729 54.045 61.0729 53.6562C61.0729 53.2675 61.3887 52.9518 61.7774 52.9518C61.9225 52.9518 62.2619 52.9518 62.2619 52.0713V51.5301C62.2619 50.6496 61.9225 50.6496 61.7774 50.6496C61.3887 50.6496 61.0729 50.3339 61.0729 49.9452C61.0729 49.5564 61.3887 49.2407 61.7774 49.2407C63.1735 49.2407 63.6708 50.4233 63.6708 51.5301V52.0713C63.6708 53.1781 63.1735 54.3607 61.7774 54.3607Z" fill="black"/>
<path d="M54.8041 54.3607H50.4196C50.0309 54.3607 49.7152 54.0449 49.7152 53.6562C49.7152 53.2675 50.0309 52.9518 50.4196 52.9518H54.8041C55.1929 52.9518 55.5086 53.2675 55.5086 53.6562C55.5086 54.0449 55.1929 54.3607 54.8041 54.3607Z" fill="black"/>
<path d="M54.8041 50.6496H50.4196C50.0309 50.6496 49.7152 50.3339 49.7152 49.9452C49.7152 49.5564 50.0309 49.2407 50.4196 49.2407H54.8041C55.1929 49.2407 55.5086 49.5564 55.5086 49.9452C55.5086 50.3339 55.1929 50.6496 54.8041 50.6496Z" fill="black"/>
<path d="M54.8041 46.9385H50.4196C50.0309 46.9385 49.7152 46.6228 49.7152 46.2341C49.7152 45.8454 50.0309 45.5297 50.4196 45.5297H54.8041C55.1929 45.5297 55.5086 45.8454 55.5086 46.2341C55.5086 46.6228 55.1929 46.9385 54.8041 46.9385Z" fill="black"/>
<path d="M54.8041 43.2266H50.4196C50.0309 43.2266 49.7152 42.9109 49.7152 42.5222C49.7152 42.1335 50.0309 41.8177 50.4196 41.8177H54.8041C55.1929 41.8177 55.5086 42.1335 55.5086 42.5222C55.5086 42.9109 55.1929 43.2266 54.8041 43.2266Z" fill="black"/>
<path d="M54.8041 39.5156H50.4196C50.0309 39.5156 49.7152 39.1998 49.7152 38.8111C49.7152 38.4224 50.0309 38.1067 50.4196 38.1067H54.8041C55.1929 38.1067 55.5086 38.4224 55.5086 38.8111C55.5086 39.1998 55.1929 39.5156 54.8041 39.5156Z" fill="black"/>
<defs>
<filter id="filter0_d_9_113" x="0" y="0" width="87" height="87" filterUnits="userSpaceOnUse" color-interpolation-filters="sRGB">
<feFlood flood-opacity="0" result="BackgroundImageFix"/>
<feColorMatrix in="SourceAlpha" type="matrix" values="0 0 0 0 0 0 0 0 0 0 0 0 0 0 0 0 0 0 127 0" result="hardAlpha"/>
<feOffset dx="1" dy="2"/>
<feGaussianBlur stdDeviation="2.5"/>
<feComposite in2="hardAlpha" operator="out"/>
<feColorMatrix type="matrix" values="0 0 0 0 0 0 0 0 0 0 0 0 0 0 0 0 0 0 0.15 0"/>
<feBlend mode="normal" in2="BackgroundImageFix" result="effect1_dropShadow_9_113"/>
<feBlend mode="normal" in="SourceGraphic" in2="effect1_dropShadow_9_113" result="shape"/>
</filter>
</defs>
</svg>
