<?xml version="1.0" encoding="UTF-8"?>
<svg id="Capa_1" xmlns="http://www.w3.org/2000/svg" viewBox="0 0 25 25">
  <g id="Layer_1">
    <g>
      <path d="M12.5,25C5.7,25,0,19.3,0,12.5S5.6,0,12.5,0s12.5,5.6,12.5,12.5-5.6,12.5-12.5,12.5h0ZM12.5,23.5c6.1,0,11-5,11-11S18.5,1.5,12.5,1.5,1.4,6.5,1.5,12.5c0,6.1,5,11,11,11h0Z"/>
      <g>
        <path d="M12.5,15.3h4.6c.5,0,.8.4.8.8s-.3.8-.7,1h-8.8c-2.8,0-.2,0-.3,0-.6,0-1-.5-1-1s.4-.9,1-.9h4.4v.1Z"/>
        <path d="M12.5,11.5h4.6c.5,0,.8.4.8.8s-.3.8-.7,1h-8.8c-2.8,0-.2,0-.3,0-.6,0-1-.5-1-1s.4-.9,1-.9h4.4v.1Z"/>
        <path d="M12.5,7.8h4.6c.5,0,.8.4.8.8s-.3.8-.7,1h-8.8c-2.8,0-.2,0-.3,0-.6,0-1-.5-1-1s.4-.9,1-.9h4.4v.1Z"/>
      </g>
    </g>
  </g>
</svg>