<svg width="18" height="24" viewBox="0 0 18 24" fill="none" xmlns="http://www.w3.org/2000/svg">
<g clip-path="url(#clip0_9_81)">
<path d="M17.2951 8.78796C16.9333 8.38943 16.4402 8.17802 15.8696 8.17701C15.458 8.17701 15.0833 8.28626 14.7691 8.49867C14.6528 8.02933 14.461 7.64597 14.1975 7.35567C13.8228 6.94197 13.3297 6.73157 12.7332 6.73056C12.278 6.73056 11.8813 6.84486 11.5523 7.07144C11.4429 6.73359 11.2829 6.44633 11.0751 6.21671C10.6944 5.79593 10.1834 5.5825 9.55713 5.5825C9.18832 5.5825 8.85729 5.65735 8.569 5.80807L8.57198 3.11342C8.57198 3.04463 8.56999 1.42926 7.72303 0.560374C7.36217 0.189152 6.91185 0 6.38598 0C5.79946 0 5.31236 0.205336 4.93858 0.612973C4.15822 1.46163 4.2129 2.92022 4.22184 3.07397L4.2119 11.3005C3.98127 10.7827 3.53294 9.98862 2.83011 9.61537C2.37482 9.37362 1.88971 9.33215 1.38868 9.49399C0.813105 9.6791 0.392605 10.0443 0.173905 10.549C-0.242619 11.5089 0.205716 12.6671 0.309101 12.9088C0.484061 13.4379 1.39763 16.0394 2.47025 18.5561C4.50516 23.3294 5.45551 23.9879 6.17921 23.9889L15.1061 24L15.2264 23.9413C15.3576 23.8776 16.0475 23.4882 16.7096 22.1307C17.5546 20.399 17.985 17.8794 17.989 14.6446L17.993 11.2884C18.0099 11.0042 18.0506 9.61942 17.2951 8.78897V8.78796ZM6.20207 22.7953C6.1126 22.7569 5.35113 22.3209 3.53095 18.0443C2.44739 15.4983 1.53581 12.8805 1.40956 12.4951L1.38968 12.4435C1.29027 12.221 1.0497 11.4836 1.24852 11.0295C1.33103 10.8403 1.48809 10.7139 1.74357 10.6319C1.9414 10.5682 2.11437 10.5814 2.28734 10.6734C2.81322 10.9516 3.19097 11.8528 3.28143 12.1472L4.23477 15.1756H5.38095L5.39487 3.05677V3.02339C5.37598 2.74219 5.41177 1.84398 5.79648 1.42825C5.94361 1.26944 6.1305 1.19459 6.38498 1.1956C6.59175 1.1956 6.7528 1.26135 6.88998 1.40195C7.30849 1.8288 7.39995 2.80288 7.39896 3.11038L7.39299 8.05766C7.38703 8.19421 7.39001 8.29435 7.39299 8.33278L7.38902 11.3208H8.56204L8.56602 8.07789C8.57695 7.86041 8.63362 7.32229 8.91296 7.01985C9.06605 6.85396 9.26983 6.77709 9.55514 6.77709C9.8484 6.77709 10.0562 6.85599 10.2102 7.02491C10.5303 7.3759 10.5582 8.06373 10.5423 8.27715L10.5403 9.26539C10.5264 9.49905 10.5333 9.68112 10.5403 9.77216L10.5423 11.3238H11.7153L11.7133 9.35643C11.7282 9.05399 11.7958 8.49867 12.0752 8.18106C12.2292 8.00506 12.438 7.92414 12.7323 7.92414C12.9947 7.92414 13.1866 8.00101 13.3347 8.16386C13.7144 8.5806 13.7403 9.47073 13.7194 9.74889L13.7144 12.1644H14.8874L14.8884 10.9415C14.9312 10.3295 15.0763 9.84296 15.2891 9.60526C15.4312 9.44544 15.6151 9.3716 15.8666 9.3716C16.1112 9.3716 16.2901 9.44342 16.4313 9.59818C16.814 10.018 16.8408 10.9344 16.82 11.2227L16.814 14.6436C16.807 20.7379 15.2185 22.4564 14.793 22.8064L6.20108 22.7963L6.20207 22.7953Z" fill="white"/>
</g>
<defs>
<clipPath id="clip0_9_81">
<rect width="18" height="24" fill="white"/>
</clipPath>
</defs>
</svg>
